<mxfile host="Electron" modified="2024-04-22T12:54:55.320Z" agent="Mozilla/5.0 (Windows NT 10.0; Win64; x64) AppleWebKit/537.36 (KHTML, like Gecko) draw.io/23.1.5 Chrome/120.0.6099.109 Electron/28.1.0 Safari/537.36" etag="-fElplgcFONO7v1_Vlw0" version="23.1.5" type="device">
  <diagram name="Page-1" id="VU7iLqCbRG2ZNxlCxFiA">
    <mxGraphModel dx="2629" dy="2637" grid="1" gridSize="10" guides="1" tooltips="1" connect="1" arrows="1" fold="1" page="1" pageScale="1" pageWidth="850" pageHeight="1100" math="0" shadow="0">
      <root>
        <mxCell id="0" />
        <mxCell id="1" parent="0" />
        <mxCell id="ag36timdUXWH244_NKGV-1" value="System Handler" style="shape=umlLifeline;perimeter=lifelinePerimeter;whiteSpace=wrap;container=1;dropTarget=0;collapsible=0;recursiveResize=0;outlineConnect=0;portConstraint=eastwest;newEdgeStyle={&quot;edgeStyle&quot;:&quot;elbowEdgeStyle&quot;,&quot;elbow&quot;:&quot;vertical&quot;,&quot;curved&quot;:0,&quot;rounded&quot;:0};participant=umlActor;verticalAlign=bottom;labelPosition=center;verticalLabelPosition=top;align=center;size=65;" parent="1" vertex="1">
          <mxGeometry x="20" y="20" width="35" height="1460" as="geometry" />
        </mxCell>
        <mxCell id="1K21a3fxYjs6yK2Ao4-l-3" value="" style="points=[];perimeter=orthogonalPerimeter;outlineConnect=0;targetShapes=umlLifeline;portConstraint=eastwest;newEdgeStyle={&quot;edgeStyle&quot;:&quot;elbowEdgeStyle&quot;,&quot;elbow&quot;:&quot;vertical&quot;,&quot;curved&quot;:0,&quot;rounded&quot;:0}" parent="ag36timdUXWH244_NKGV-1" vertex="1">
          <mxGeometry x="12.5" y="90" width="10" height="1330" as="geometry" />
        </mxCell>
        <mxCell id="ag36timdUXWH244_NKGV-2" value="HbcScraper" style="shape=umlLifeline;perimeter=lifelinePerimeter;whiteSpace=wrap;container=1;dropTarget=0;collapsible=0;recursiveResize=0;outlineConnect=0;portConstraint=eastwest;newEdgeStyle={&quot;edgeStyle&quot;:&quot;elbowEdgeStyle&quot;,&quot;elbow&quot;:&quot;vertical&quot;,&quot;curved&quot;:0,&quot;rounded&quot;:0};size=65;" parent="1" vertex="1">
          <mxGeometry x="220" y="20" width="150" height="1460" as="geometry" />
        </mxCell>
        <mxCell id="ag36timdUXWH244_NKGV-47" value="" style="points=[];perimeter=orthogonalPerimeter;outlineConnect=0;targetShapes=umlLifeline;portConstraint=eastwest;newEdgeStyle={&quot;edgeStyle&quot;:&quot;elbowEdgeStyle&quot;,&quot;elbow&quot;:&quot;vertical&quot;,&quot;curved&quot;:0,&quot;rounded&quot;:0}" parent="ag36timdUXWH244_NKGV-2" vertex="1">
          <mxGeometry x="70" y="110" width="10" height="1270" as="geometry" />
        </mxCell>
        <mxCell id="ag36timdUXWH244_NKGV-3" value="HbcScrapeJob" style="shape=umlLifeline;perimeter=lifelinePerimeter;whiteSpace=wrap;container=1;dropTarget=0;collapsible=0;recursiveResize=0;outlineConnect=0;portConstraint=eastwest;newEdgeStyle={&quot;edgeStyle&quot;:&quot;elbowEdgeStyle&quot;,&quot;elbow&quot;:&quot;vertical&quot;,&quot;curved&quot;:0,&quot;rounded&quot;:0};size=65;" parent="1" vertex="1">
          <mxGeometry x="420" y="20" width="150" height="1460" as="geometry" />
        </mxCell>
        <mxCell id="ag36timdUXWH244_NKGV-4" value="" style="points=[];perimeter=orthogonalPerimeter;outlineConnect=0;targetShapes=umlLifeline;portConstraint=eastwest;newEdgeStyle={&quot;edgeStyle&quot;:&quot;elbowEdgeStyle&quot;,&quot;elbow&quot;:&quot;vertical&quot;,&quot;curved&quot;:0,&quot;rounded&quot;:0}" parent="ag36timdUXWH244_NKGV-3" vertex="1">
          <mxGeometry x="70" y="159" width="10" height="471" as="geometry" />
        </mxCell>
        <mxCell id="ag36timdUXWH244_NKGV-6" value="PlcDataSource" style="shape=umlLifeline;perimeter=lifelinePerimeter;whiteSpace=wrap;container=1;dropTarget=0;collapsible=0;recursiveResize=0;outlineConnect=0;portConstraint=eastwest;newEdgeStyle={&quot;edgeStyle&quot;:&quot;elbowEdgeStyle&quot;,&quot;elbow&quot;:&quot;vertical&quot;,&quot;curved&quot;:0,&quot;rounded&quot;:0};size=65;" parent="1" vertex="1">
          <mxGeometry x="620" y="20" width="150" height="1460" as="geometry" />
        </mxCell>
        <mxCell id="ag36timdUXWH244_NKGV-7" value="" style="points=[];perimeter=orthogonalPerimeter;outlineConnect=0;targetShapes=umlLifeline;portConstraint=eastwest;newEdgeStyle={&quot;edgeStyle&quot;:&quot;elbowEdgeStyle&quot;,&quot;elbow&quot;:&quot;vertical&quot;,&quot;curved&quot;:0,&quot;rounded&quot;:0}" parent="ag36timdUXWH244_NKGV-6" vertex="1">
          <mxGeometry x="70" y="211" width="10" height="159" as="geometry" />
        </mxCell>
        <mxCell id="ag36timdUXWH244_NKGV-8" value="BlueprintPersistenceService" style="shape=umlLifeline;perimeter=lifelinePerimeter;whiteSpace=wrap;container=1;dropTarget=0;collapsible=0;recursiveResize=0;outlineConnect=0;portConstraint=eastwest;newEdgeStyle={&quot;edgeStyle&quot;:&quot;elbowEdgeStyle&quot;,&quot;elbow&quot;:&quot;vertical&quot;,&quot;curved&quot;:0,&quot;rounded&quot;:0};size=65;" parent="1" vertex="1">
          <mxGeometry x="820" y="20" width="212" height="1460" as="geometry" />
        </mxCell>
        <mxCell id="ag36timdUXWH244_NKGV-9" value="" style="points=[];perimeter=orthogonalPerimeter;outlineConnect=0;targetShapes=umlLifeline;portConstraint=eastwest;newEdgeStyle={&quot;edgeStyle&quot;:&quot;elbowEdgeStyle&quot;,&quot;elbow&quot;:&quot;vertical&quot;,&quot;curved&quot;:0,&quot;rounded&quot;:0}" parent="ag36timdUXWH244_NKGV-8" vertex="1">
          <mxGeometry x="101" y="263" width="10" height="47" as="geometry" />
        </mxCell>
        <mxCell id="ag36timdUXWH244_NKGV-10" value="HbcScraperTask" style="shape=umlLifeline;perimeter=lifelinePerimeter;whiteSpace=wrap;container=1;dropTarget=0;collapsible=0;recursiveResize=0;outlineConnect=0;portConstraint=eastwest;newEdgeStyle={&quot;edgeStyle&quot;:&quot;elbowEdgeStyle&quot;,&quot;elbow&quot;:&quot;vertical&quot;,&quot;curved&quot;:0,&quot;rounded&quot;:0};size=65;" parent="1" vertex="1">
          <mxGeometry x="1082" y="20" width="150" height="1460" as="geometry" />
        </mxCell>
        <mxCell id="ag36timdUXWH244_NKGV-11" value="" style="points=[];perimeter=orthogonalPerimeter;outlineConnect=0;targetShapes=umlLifeline;portConstraint=eastwest;newEdgeStyle={&quot;edgeStyle&quot;:&quot;elbowEdgeStyle&quot;,&quot;elbow&quot;:&quot;vertical&quot;,&quot;curved&quot;:0,&quot;rounded&quot;:0}" parent="ag36timdUXWH244_NKGV-10" vertex="1">
          <mxGeometry x="70" y="471" width="10" height="52" as="geometry" />
        </mxCell>
        <mxCell id="ag36timdUXWH244_NKGV-12" value="ThreadPoolTaskScheduler" style="shape=umlLifeline;perimeter=lifelinePerimeter;whiteSpace=wrap;container=1;dropTarget=0;collapsible=0;recursiveResize=0;outlineConnect=0;portConstraint=eastwest;newEdgeStyle={&quot;edgeStyle&quot;:&quot;elbowEdgeStyle&quot;,&quot;elbow&quot;:&quot;vertical&quot;,&quot;curved&quot;:0,&quot;rounded&quot;:0};size=65;" parent="1" vertex="1">
          <mxGeometry x="1282" y="20" width="199" height="1460" as="geometry" />
        </mxCell>
        <mxCell id="ag36timdUXWH244_NKGV-13" value="" style="points=[];perimeter=orthogonalPerimeter;outlineConnect=0;targetShapes=umlLifeline;portConstraint=eastwest;newEdgeStyle={&quot;edgeStyle&quot;:&quot;elbowEdgeStyle&quot;,&quot;elbow&quot;:&quot;vertical&quot;,&quot;curved&quot;:0,&quot;rounded&quot;:0}" parent="ag36timdUXWH244_NKGV-12" vertex="1">
          <mxGeometry x="95" y="679" width="10" height="52" as="geometry" />
        </mxCell>
        <mxCell id="ag36timdUXWH244_NKGV-14" value="TriggeredScraperImpl" style="shape=umlLifeline;perimeter=lifelinePerimeter;whiteSpace=wrap;container=1;dropTarget=0;collapsible=0;recursiveResize=0;outlineConnect=0;portConstraint=eastwest;newEdgeStyle={&quot;edgeStyle&quot;:&quot;elbowEdgeStyle&quot;,&quot;elbow&quot;:&quot;vertical&quot;,&quot;curved&quot;:0,&quot;rounded&quot;:0};size=65;" parent="1" vertex="1">
          <mxGeometry x="1531" y="20" width="171" height="1460" as="geometry" />
        </mxCell>
        <mxCell id="ag36timdUXWH244_NKGV-15" value="" style="points=[];perimeter=orthogonalPerimeter;outlineConnect=0;targetShapes=umlLifeline;portConstraint=eastwest;newEdgeStyle={&quot;edgeStyle&quot;:&quot;elbowEdgeStyle&quot;,&quot;elbow&quot;:&quot;vertical&quot;,&quot;curved&quot;:0,&quot;rounded&quot;:0}" parent="ag36timdUXWH244_NKGV-14" vertex="1">
          <mxGeometry x="81" y="829" width="10" height="52" as="geometry" />
        </mxCell>
        <mxCell id="ag36timdUXWH244_NKGV-16" value="PlcReadRequest" style="shape=umlLifeline;perimeter=lifelinePerimeter;whiteSpace=wrap;container=1;dropTarget=0;collapsible=0;recursiveResize=0;outlineConnect=0;portConstraint=eastwest;newEdgeStyle={&quot;edgeStyle&quot;:&quot;elbowEdgeStyle&quot;,&quot;elbow&quot;:&quot;vertical&quot;,&quot;curved&quot;:0,&quot;rounded&quot;:0};size=65;" parent="1" vertex="1">
          <mxGeometry x="1752" y="20" width="150" height="1460" as="geometry" />
        </mxCell>
        <mxCell id="ag36timdUXWH244_NKGV-17" value="" style="points=[];perimeter=orthogonalPerimeter;outlineConnect=0;targetShapes=umlLifeline;portConstraint=eastwest;newEdgeStyle={&quot;edgeStyle&quot;:&quot;elbowEdgeStyle&quot;,&quot;elbow&quot;:&quot;vertical&quot;,&quot;curved&quot;:0,&quot;rounded&quot;:0}" parent="ag36timdUXWH244_NKGV-16" vertex="1">
          <mxGeometry x="70" y="933" width="10" height="52" as="geometry" />
        </mxCell>
        <mxCell id="ag36timdUXWH244_NKGV-18" value="PlcResultHandler" style="shape=umlLifeline;perimeter=lifelinePerimeter;whiteSpace=wrap;container=1;dropTarget=0;collapsible=0;recursiveResize=0;outlineConnect=0;portConstraint=eastwest;newEdgeStyle={&quot;edgeStyle&quot;:&quot;elbowEdgeStyle&quot;,&quot;elbow&quot;:&quot;vertical&quot;,&quot;curved&quot;:0,&quot;rounded&quot;:0};size=65;" parent="1" vertex="1">
          <mxGeometry x="1952" y="20" width="150" height="1460" as="geometry" />
        </mxCell>
        <mxCell id="ag36timdUXWH244_NKGV-19" value="MonitorHandler" style="shape=umlLifeline;perimeter=lifelinePerimeter;whiteSpace=wrap;container=1;dropTarget=0;collapsible=0;recursiveResize=0;outlineConnect=0;portConstraint=eastwest;newEdgeStyle={&quot;edgeStyle&quot;:&quot;elbowEdgeStyle&quot;,&quot;elbow&quot;:&quot;vertical&quot;,&quot;curved&quot;:0,&quot;rounded&quot;:0};size=65;" parent="1" vertex="1">
          <mxGeometry x="2152" y="20" width="150" height="1460" as="geometry" />
        </mxCell>
        <mxCell id="ag36timdUXWH244_NKGV-20" value="AlarmConditionHandler" style="shape=umlLifeline;perimeter=lifelinePerimeter;whiteSpace=wrap;container=1;dropTarget=0;collapsible=0;recursiveResize=0;outlineConnect=0;portConstraint=eastwest;newEdgeStyle={&quot;edgeStyle&quot;:&quot;elbowEdgeStyle&quot;,&quot;elbow&quot;:&quot;vertical&quot;,&quot;curved&quot;:0,&quot;rounded&quot;:0};size=65;" parent="1" vertex="1">
          <mxGeometry x="2352" y="20" width="187" height="1460" as="geometry" />
        </mxCell>
        <mxCell id="ag36timdUXWH244_NKGV-21" value="AlarmHistoryHandler" style="shape=umlLifeline;perimeter=lifelinePerimeter;whiteSpace=wrap;container=1;dropTarget=0;collapsible=0;recursiveResize=0;outlineConnect=0;portConstraint=eastwest;newEdgeStyle={&quot;edgeStyle&quot;:&quot;elbowEdgeStyle&quot;,&quot;elbow&quot;:&quot;vertical&quot;,&quot;curved&quot;:0,&quot;rounded&quot;:0};size=65;" parent="1" vertex="1">
          <mxGeometry x="2589" y="20" width="168" height="1460" as="geometry" />
        </mxCell>
        <mxCell id="ag36timdUXWH244_NKGV-52" value="" style="points=[];perimeter=orthogonalPerimeter;outlineConnect=0;targetShapes=umlLifeline;portConstraint=eastwest;newEdgeStyle={&quot;edgeStyle&quot;:&quot;elbowEdgeStyle&quot;,&quot;elbow&quot;:&quot;vertical&quot;,&quot;curved&quot;:0,&quot;rounded&quot;:0}" parent="ag36timdUXWH244_NKGV-21" vertex="1">
          <mxGeometry x="79" y="1215" width="10" height="41" as="geometry" />
        </mxCell>
        <mxCell id="ag36timdUXWH244_NKGV-22" value="ReportHandler" style="shape=umlLifeline;perimeter=lifelinePerimeter;whiteSpace=wrap;container=1;dropTarget=0;collapsible=0;recursiveResize=0;outlineConnect=0;portConstraint=eastwest;newEdgeStyle={&quot;edgeStyle&quot;:&quot;elbowEdgeStyle&quot;,&quot;elbow&quot;:&quot;vertical&quot;,&quot;curved&quot;:0,&quot;rounded&quot;:0};size=65;" parent="1" vertex="1">
          <mxGeometry x="2807" y="20" width="150" height="1460" as="geometry" />
        </mxCell>
        <mxCell id="ag36timdUXWH244_NKGV-53" value="" style="points=[];perimeter=orthogonalPerimeter;outlineConnect=0;targetShapes=umlLifeline;portConstraint=eastwest;newEdgeStyle={&quot;edgeStyle&quot;:&quot;elbowEdgeStyle&quot;,&quot;elbow&quot;:&quot;vertical&quot;,&quot;curved&quot;:0,&quot;rounded&quot;:0}" parent="ag36timdUXWH244_NKGV-22" vertex="1">
          <mxGeometry x="70" y="1276" width="10" height="41" as="geometry" />
        </mxCell>
        <mxCell id="ag36timdUXWH244_NKGV-23" value="loop" style="shape=umlFrame;pointerEvents=0;dropTarget=0;strokeColor=#000000;height=20;width=40" parent="1" vertex="1">
          <mxGeometry x="1147" y="771" width="1745" height="609" as="geometry" />
        </mxCell>
        <mxCell id="ag36timdUXWH244_NKGV-24" value="[loop by cron]" style="text;strokeColor=none;fillColor=none;align=center;verticalAlign=middle;whiteSpace=wrap;" parent="ag36timdUXWH244_NKGV-23" vertex="1">
          <mxGeometry x="40" width="1705" height="23.696498054474702" as="geometry" />
        </mxCell>
        <mxCell id="ag36timdUXWH244_NKGV-25" value="1. start()" style="verticalAlign=bottom;endArrow=block;edgeStyle=elbowEdgeStyle;elbow=vertical;curved=0;rounded=0;" parent="1" source="1K21a3fxYjs6yK2Ao4-l-3" edge="1">
          <mxGeometry relative="1" as="geometry">
            <Array as="points">
              <mxPoint x="205" y="130" />
            </Array>
            <mxPoint x="37.888888888888886" y="130" as="sourcePoint" />
            <mxPoint x="290" y="130" as="targetPoint" />
          </mxGeometry>
        </mxCell>
        <mxCell id="ag36timdUXWH244_NKGV-26" value="2. getTags()" style="verticalAlign=bottom;endArrow=block;edgeStyle=elbowEdgeStyle;elbow=vertical;curved=0;rounded=0;" parent="1" source="ag36timdUXWH244_NKGV-47" target="ag36timdUXWH244_NKGV-4" edge="1">
          <mxGeometry relative="1" as="geometry">
            <Array as="points">
              <mxPoint x="408" y="179" />
            </Array>
          </mxGeometry>
        </mxCell>
        <mxCell id="ag36timdUXWH244_NKGV-27" value="3. getTags()" style="verticalAlign=bottom;endArrow=block;edgeStyle=elbowEdgeStyle;elbow=vertical;curved=0;rounded=0;" parent="1" source="ag36timdUXWH244_NKGV-4" target="ag36timdUXWH244_NKGV-7" edge="1">
          <mxGeometry relative="1" as="geometry">
            <Array as="points">
              <mxPoint x="608" y="231" />
            </Array>
          </mxGeometry>
        </mxCell>
        <mxCell id="ag36timdUXWH244_NKGV-28" value="4. getAll()" style="verticalAlign=bottom;endArrow=block;edgeStyle=elbowEdgeStyle;elbow=vertical;curved=0;rounded=0;" parent="1" source="ag36timdUXWH244_NKGV-7" target="ag36timdUXWH244_NKGV-9" edge="1">
          <mxGeometry relative="1" as="geometry">
            <Array as="points">
              <mxPoint x="823" y="283" />
            </Array>
          </mxGeometry>
        </mxCell>
        <mxCell id="ag36timdUXWH244_NKGV-29" value="5. return all tags" style="verticalAlign=bottom;endArrow=block;edgeStyle=elbowEdgeStyle;elbow=vertical;curved=0;rounded=0;dashed=1;" parent="1" source="ag36timdUXWH244_NKGV-9" target="ag36timdUXWH244_NKGV-7" edge="1">
          <mxGeometry relative="1" as="geometry">
            <Array as="points">
              <mxPoint x="821" y="330" />
            </Array>
            <mxPoint x="926" y="325" as="sourcePoint" />
            <mxPoint x="700" y="372" as="targetPoint" />
          </mxGeometry>
        </mxCell>
        <mxCell id="ag36timdUXWH244_NKGV-30" value="6. return all tags" style="verticalAlign=bottom;endArrow=block;edgeStyle=elbowEdgeStyle;elbow=vertical;curved=0;rounded=0;dashed=1;" parent="1" edge="1">
          <mxGeometry relative="1" as="geometry">
            <Array as="points">
              <mxPoint x="605" y="390" />
            </Array>
            <mxPoint x="690" y="390" as="sourcePoint" />
            <mxPoint x="500" y="390" as="targetPoint" />
          </mxGeometry>
        </mxCell>
        <mxCell id="ag36timdUXWH244_NKGV-31" value="7. return all tags" style="verticalAlign=bottom;endArrow=block;edgeStyle=elbowEdgeStyle;elbow=vertical;curved=0;rounded=0;dashed=1;" parent="1" source="ag36timdUXWH244_NKGV-4" target="ag36timdUXWH244_NKGV-47" edge="1">
          <mxGeometry relative="1" as="geometry">
            <Array as="points">
              <mxPoint x="405" y="439" />
            </Array>
          </mxGeometry>
        </mxCell>
        <mxCell id="ag36timdUXWH244_NKGV-32" value="8. initialize ScraperTask(tags)" style="verticalAlign=bottom;endArrow=block;edgeStyle=elbowEdgeStyle;elbow=vertical;curved=0;rounded=0;" parent="1" source="ag36timdUXWH244_NKGV-47" target="ag36timdUXWH244_NKGV-11" edge="1">
          <mxGeometry relative="1" as="geometry">
            <Array as="points">
              <mxPoint x="739" y="491" />
            </Array>
          </mxGeometry>
        </mxCell>
        <mxCell id="ag36timdUXWH244_NKGV-33" value="9. return scraperTask" style="verticalAlign=bottom;endArrow=block;edgeStyle=elbowEdgeStyle;elbow=vertical;curved=0;rounded=0;dashed=1;" parent="1" source="ag36timdUXWH244_NKGV-11" target="ag36timdUXWH244_NKGV-47" edge="1">
          <mxGeometry relative="1" as="geometry">
            <Array as="points">
              <mxPoint x="736" y="543" />
            </Array>
          </mxGeometry>
        </mxCell>
        <mxCell id="ag36timdUXWH244_NKGV-34" value="10. getCron()" style="verticalAlign=bottom;endArrow=block;edgeStyle=elbowEdgeStyle;elbow=vertical;curved=0;rounded=0;" parent="1" edge="1">
          <mxGeometry relative="1" as="geometry">
            <Array as="points">
              <mxPoint x="408" y="597" />
            </Array>
            <mxPoint x="300" y="597" as="sourcePoint" />
            <mxPoint x="490" y="597" as="targetPoint" />
          </mxGeometry>
        </mxCell>
        <mxCell id="ag36timdUXWH244_NKGV-35" value="11. return cron" style="verticalAlign=bottom;endArrow=block;edgeStyle=elbowEdgeStyle;elbow=vertical;curved=0;rounded=0;dashed=1;" parent="1" edge="1">
          <mxGeometry relative="1" as="geometry">
            <Array as="points">
              <mxPoint x="405" y="650" />
            </Array>
            <mxPoint x="490" y="650" as="sourcePoint" />
            <mxPoint x="300" y="650" as="targetPoint" />
          </mxGeometry>
        </mxCell>
        <mxCell id="ag36timdUXWH244_NKGV-36" value="12. schedule(scraperTask, cron)" style="verticalAlign=bottom;endArrow=block;edgeStyle=elbowEdgeStyle;elbow=vertical;curved=0;rounded=0;" parent="1" source="ag36timdUXWH244_NKGV-47" target="ag36timdUXWH244_NKGV-13" edge="1">
          <mxGeometry relative="1" as="geometry">
            <Array as="points">
              <mxPoint x="851" y="699" />
            </Array>
          </mxGeometry>
        </mxCell>
        <mxCell id="ag36timdUXWH244_NKGV-37" value="13. return ScheduledFuture" style="verticalAlign=bottom;endArrow=block;edgeStyle=elbowEdgeStyle;elbow=vertical;curved=0;rounded=0;dashed=1;" parent="1" source="ag36timdUXWH244_NKGV-13" target="ag36timdUXWH244_NKGV-47" edge="1">
          <mxGeometry relative="1" as="geometry">
            <Array as="points">
              <mxPoint x="848" y="751" />
            </Array>
          </mxGeometry>
        </mxCell>
        <mxCell id="ag36timdUXWH244_NKGV-38" value="14. getPlcConnection()" style="verticalAlign=bottom;endArrow=block;edgeStyle=elbowEdgeStyle;elbow=vertical;curved=0;rounded=0;" parent="1" source="ag36timdUXWH244_NKGV-10" target="ag36timdUXWH244_NKGV-15" edge="1">
          <mxGeometry relative="1" as="geometry">
            <Array as="points">
              <mxPoint x="1397" y="849" />
            </Array>
          </mxGeometry>
        </mxCell>
        <mxCell id="ag36timdUXWH244_NKGV-39" value="15. return connection" style="verticalAlign=bottom;endArrow=block;edgeStyle=elbowEdgeStyle;elbow=vertical;curved=0;rounded=0;dashed=1;" parent="1" source="ag36timdUXWH244_NKGV-15" target="ag36timdUXWH244_NKGV-10" edge="1">
          <mxGeometry relative="1" as="geometry">
            <Array as="points">
              <mxPoint x="1394" y="901" />
            </Array>
          </mxGeometry>
        </mxCell>
        <mxCell id="ag36timdUXWH244_NKGV-40" value="16. read values of tags from PLC" style="verticalAlign=bottom;endArrow=block;edgeStyle=elbowEdgeStyle;elbow=vertical;curved=0;rounded=0;" parent="1" source="ag36timdUXWH244_NKGV-10" target="ag36timdUXWH244_NKGV-17" edge="1">
          <mxGeometry relative="1" as="geometry">
            <Array as="points">
              <mxPoint x="1502" y="953" />
            </Array>
          </mxGeometry>
        </mxCell>
        <mxCell id="ag36timdUXWH244_NKGV-41" value="17. return plcReadResponse" style="verticalAlign=bottom;endArrow=block;edgeStyle=elbowEdgeStyle;elbow=vertical;curved=0;rounded=0;dashed=1;" parent="1" source="ag36timdUXWH244_NKGV-17" target="ag36timdUXWH244_NKGV-10" edge="1">
          <mxGeometry relative="1" as="geometry">
            <Array as="points">
              <mxPoint x="1500" y="1005" />
            </Array>
          </mxGeometry>
        </mxCell>
        <mxCell id="ag36timdUXWH244_NKGV-42" value="18. handle()" style="verticalAlign=bottom;endArrow=block;edgeStyle=elbowEdgeStyle;elbow=vertical;curved=0;rounded=0;" parent="1" target="ag36timdUXWH244_NKGV-48" edge="1">
          <mxGeometry x="-0.0001" relative="1" as="geometry">
            <Array as="points">
              <mxPoint x="1602" y="1060" />
            </Array>
            <mxPoint x="1156.7592592592596" y="1060" as="sourcePoint" />
            <mxPoint x="2026.5" y="1060" as="targetPoint" />
            <mxPoint as="offset" />
          </mxGeometry>
        </mxCell>
        <mxCell id="ag36timdUXWH244_NKGV-43" value="19. handle()" style="verticalAlign=bottom;endArrow=block;edgeStyle=elbowEdgeStyle;elbow=vertical;curved=0;rounded=0;" parent="1" source="ag36timdUXWH244_NKGV-48" target="ag36timdUXWH244_NKGV-50" edge="1">
          <mxGeometry relative="1" as="geometry">
            <Array as="points">
              <mxPoint x="2140" y="1109" />
            </Array>
          </mxGeometry>
        </mxCell>
        <mxCell id="ag36timdUXWH244_NKGV-44" value="20. handle()" style="verticalAlign=bottom;endArrow=block;edgeStyle=elbowEdgeStyle;elbow=vertical;curved=0;rounded=0;" parent="1" target="ag36timdUXWH244_NKGV-51" edge="1">
          <mxGeometry relative="1" as="geometry">
            <Array as="points">
              <mxPoint x="2249" y="1178" />
            </Array>
            <mxPoint x="2032" y="1178" as="sourcePoint" />
            <mxPoint x="2445" y="1178" as="targetPoint" />
          </mxGeometry>
        </mxCell>
        <mxCell id="ag36timdUXWH244_NKGV-45" value="21. handle()" style="verticalAlign=bottom;endArrow=block;edgeStyle=elbowEdgeStyle;elbow=vertical;curved=0;rounded=0;" parent="1" edge="1">
          <mxGeometry relative="1" as="geometry">
            <Array as="points">
              <mxPoint x="2363" y="1235" />
            </Array>
            <mxPoint x="2032" y="1235" as="sourcePoint" />
            <mxPoint x="2668" y="1235" as="targetPoint" />
          </mxGeometry>
        </mxCell>
        <mxCell id="ag36timdUXWH244_NKGV-46" value="22. handle()" style="verticalAlign=bottom;endArrow=block;edgeStyle=elbowEdgeStyle;elbow=vertical;curved=0;rounded=0;" parent="1" source="ag36timdUXWH244_NKGV-48" edge="1">
          <mxGeometry relative="1" as="geometry">
            <Array as="points">
              <mxPoint x="2467" y="1296" />
            </Array>
            <mxPoint x="2032" y="1296" as="sourcePoint" />
            <mxPoint x="2877" y="1296" as="targetPoint" />
          </mxGeometry>
        </mxCell>
        <mxCell id="ag36timdUXWH244_NKGV-48" value="" style="points=[];perimeter=orthogonalPerimeter;outlineConnect=0;targetShapes=umlLifeline;portConstraint=eastwest;newEdgeStyle={&quot;edgeStyle&quot;:&quot;elbowEdgeStyle&quot;,&quot;elbow&quot;:&quot;vertical&quot;,&quot;curved&quot;:0,&quot;rounded&quot;:0}" parent="1" vertex="1">
          <mxGeometry x="2022" y="1060" width="10" height="300" as="geometry" />
        </mxCell>
        <mxCell id="ag36timdUXWH244_NKGV-50" value="" style="points=[];perimeter=orthogonalPerimeter;outlineConnect=0;targetShapes=umlLifeline;portConstraint=eastwest;newEdgeStyle={&quot;edgeStyle&quot;:&quot;elbowEdgeStyle&quot;,&quot;elbow&quot;:&quot;vertical&quot;,&quot;curved&quot;:0,&quot;rounded&quot;:0}" parent="1" vertex="1">
          <mxGeometry x="2222" y="1109" width="10" height="41" as="geometry" />
        </mxCell>
        <mxCell id="ag36timdUXWH244_NKGV-51" value="" style="points=[];perimeter=orthogonalPerimeter;outlineConnect=0;targetShapes=umlLifeline;portConstraint=eastwest;newEdgeStyle={&quot;edgeStyle&quot;:&quot;elbowEdgeStyle&quot;,&quot;elbow&quot;:&quot;vertical&quot;,&quot;curved&quot;:0,&quot;rounded&quot;:0}" parent="1" vertex="1">
          <mxGeometry x="2440.5" y="1177" width="10" height="41" as="geometry" />
        </mxCell>
        <mxCell id="1K21a3fxYjs6yK2Ao4-l-4" value="&lt;span style=&quot;text-wrap: nowrap;&quot;&gt;&amp;nbsp; This method only executes once&lt;br&gt;&amp;nbsp; when the application is boostrapping&lt;/span&gt;" style="shape=note;whiteSpace=wrap;html=1;backgroundOutline=1;darkOpacity=0.05;verticalAlign=middle;align=left;size=23;" parent="1" vertex="1">
          <mxGeometry x="55" y="208" width="225" height="50" as="geometry" />
        </mxCell>
        <mxCell id="1K21a3fxYjs6yK2Ao4-l-5" value="" style="endArrow=none;dashed=1;html=1;dashPattern=1 3;strokeWidth=2;rounded=0;entryX=0.5;entryY=0;entryDx=0;entryDy=0;entryPerimeter=0;" parent="1" edge="1">
          <mxGeometry width="50" height="50" relative="1" as="geometry">
            <mxPoint x="150" y="130" as="sourcePoint" />
            <mxPoint x="150" y="208" as="targetPoint" />
          </mxGeometry>
        </mxCell>
      </root>
    </mxGraphModel>
  </diagram>
</mxfile>
